<?xml version="1.0" encoding="UTF-8" standalone="no"?>
<svg width="54px" height="60px" viewBox="0 0 54 60" version="1.1" xmlns="http://www.w3.org/2000/svg" xmlns:xlink="http://www.w3.org/1999/xlink">
    <defs>
        <path d="M21.574351,0.551009091 C22.5243746,-0.00275188474 24.0654332,-0.00230532177 25.0146907,0.551009091 L43.9701,11.5999625 C44.9201235,12.1537235 45.6902698,13.5013525 45.6902698,14.6079813 L45.6902698,36.7058882 C45.6902698,37.8134101 44.9193574,39.1605926 43.9701,39.713907 L25.0146907,50.7628604 C24.0646671,51.3166214 22.5236085,51.3161748 21.574351,50.7628604 L2.61894174,39.713907 C1.66891819,39.160146 0.898771939,37.812517 0.898771939,36.7058882 L0.898771939,14.6079813 C0.898771939,13.5004594 1.66968431,12.1532769 2.61894174,11.5999625 L21.574351,0.551009091 Z" id="path-1"></path>
        <filter x="-50%" y="-50%" width="200%" height="200%" filterUnits="objectBoundingBox" id="filter-3">
            <feOffset dx="0" dy="2" in="SourceAlpha" result="shadowOffsetOuter1"></feOffset>
            <feGaussianBlur stdDeviation="2" in="shadowOffsetOuter1" result="shadowBlurOuter1"></feGaussianBlur>
            <feColorMatrix values="0 0 0 0 0   0 0 0 0 0   0 0 0 0 0  0 0 0 0.05 0" type="matrix" in="shadowBlurOuter1"></feColorMatrix>
        </filter>
    </defs>
    <g id="Symbols" stroke="none" stroke-width="1" fill="none" fill-rule="evenodd">
        <g id="medium-video" transform="translate(-6.000000, -149.000000)">
            <g id="video">
                <g>
                    <g id="Channel" transform="translate(9.000000, 151.000000)">
                        <g id="photo" transform="translate(0.500000, 0.500000)">
                            <mask id="mask-2" fill="transparent">
                                <use xlink:href="#path-1"></use>
                            </mask>
                            <g id="Mask">
                                <use fill="black" fill-opacity="1" filter="url(#filter-3)" xlink:href="#path-1"></use>
                                <use fill="rgba(255,255,255,0)" fill-rule="evenodd" xlink:href="#path-1"></use>
                            </g>
                        </g>
                    </g>
                </g>
            </g>
        </g>
    </g>
</svg>